<svg xmlns="http://www.w3.org/2000/svg" xmlns:xlink="http://www.w3.org/1999/xlink" width="500" zoomAndPan="magnify" viewBox="0 0 375 374.999991" height="500" preserveAspectRatio="xMidYMid meet" version="1.0"><defs><clipPath id="id1"><path d="M 25.390625 58.621094 L 349.390625 58.621094 L 349.390625 316.621094 L 25.390625 316.621094 Z M 25.390625 58.621094 " clip-rule="nonzero"/></clipPath><clipPath id="id2"><path d="M 25.390625 100 L 349.390625 100 L 349.390625 111 L 25.390625 111 Z M 25.390625 100 " clip-rule="nonzero"/></clipPath></defs><path fill="#ffffff" d="M 159.820312 167.636719 L 86.96875 199.195312 L 86.96875 216.761719 L 159.820312 248.492188 L 159.820312 227.960938 L 108.992188 207.777344 L 159.820312 188.3125 L 159.820312 167.636719 " fill-opacity="1" fill-rule="nonzero"/><path fill="#ffffff" d="M 208.175781 152.375 L 192.851562 152.375 L 166.546875 262.429688 L 181.554688 262.429688 L 208.175781 152.375 " fill-opacity="1" fill-rule="nonzero"/><path fill="#ffffff" d="M 214.902344 167.78125 L 214.902344 188.167969 L 265.785156 207.980469 L 214.902344 228.019531 L 214.902344 248.578125 L 287.808594 216.761719 L 287.808594 199.339844 L 214.902344 167.78125 " fill-opacity="1" fill-rule="nonzero"/><g clip-path="url(#id1)"><path fill="#ffffff" d="M 48.015625 58.648438 L 25.476562 81.140625 L 25.476562 316.332031 L 349.300781 316.332031 L 349.300781 74.917969 L 148.691406 74.917969 L 132.480469 58.824219 Z M 52.183594 68.785156 L 128.3125 68.957031 L 141.621094 82.117188 L 144.554688 85.054688 L 339.179688 85.054688 L 339.179688 306.167969 L 35.597656 306.167969 L 35.597656 85.34375 L 52.183594 68.785156 " fill-opacity="1" fill-rule="nonzero"/></g><g clip-path="url(#id2)"><path fill="#ffffff" d="M 25.476562 100.605469 L 349.300781 100.605469 L 349.300781 110.738281 L 25.476562 110.738281 L 25.476562 100.605469 " fill-opacity="1" fill-rule="nonzero"/></g></svg>