<svg xmlns="http://www.w3.org/2000/svg" xmlns:xlink="http://www.w3.org/1999/xlink" width="500" zoomAndPan="magnify" viewBox="0 0 375 299.999988" height="400" preserveAspectRatio="xMidYMid meet" version="1.0"><defs><clipPath id="id1"><path d="M 10.539062 9.316406 L 364.539062 9.316406 L 364.539062 290.566406 L 10.539062 290.566406 Z M 10.539062 9.316406 " clip-rule="nonzero"/></clipPath><clipPath id="id2"><path d="M 10.539062 55 L 364.539062 55 L 364.539062 67 L 10.539062 67 Z M 10.539062 55 " clip-rule="nonzero"/></clipPath></defs><path fill="#ffffff" d="M 157.414062 128.15625 L 77.824219 162.558594 L 77.824219 181.707031 L 157.414062 216.296875 L 157.414062 193.917969 L 101.882812 171.914062 L 157.414062 150.691406 L 157.414062 128.15625 " fill-opacity="1" fill-rule="nonzero"/><path fill="#ffffff" d="M 210.246094 111.519531 L 193.503906 111.519531 L 164.765625 231.488281 L 181.160156 231.488281 L 210.246094 111.519531 " fill-opacity="1" fill-rule="nonzero"/><path fill="#ffffff" d="M 217.597656 128.3125 L 217.597656 150.535156 L 273.191406 172.132812 L 217.597656 193.980469 L 217.597656 216.390625 L 297.253906 181.707031 L 297.253906 162.714844 L 217.597656 128.3125 " fill-opacity="1" fill-rule="nonzero"/><g clip-path="url(#id1)"><path fill="#ffffff" d="M 35.261719 9.347656 L 10.636719 33.863281 L 10.636719 290.25 L 364.4375 290.25 L 364.4375 27.082031 L 145.261719 27.082031 L 127.542969 9.535156 Z M 39.816406 20.394531 L 122.988281 20.582031 L 137.53125 34.929688 L 140.738281 38.128906 L 353.382812 38.128906 L 353.382812 279.171875 L 21.695312 279.171875 L 21.695312 38.445312 L 39.816406 20.394531 " fill-opacity="1" fill-rule="nonzero"/></g><g clip-path="url(#id2)"><path fill="#ffffff" d="M 10.636719 55.082031 L 364.4375 55.082031 L 364.4375 66.128906 L 10.636719 66.128906 L 10.636719 55.082031 " fill-opacity="1" fill-rule="nonzero"/></g></svg>